<?xml version="1.0" encoding="utf-8"?>
<!-- Generator: Adobe Illustrator 27.9.1, SVG Export Plug-In . SVG Version: 6.00 Build 0)  -->
<svg version="1.1" id="Layer_1" xmlns="http://www.w3.org/2000/svg" xmlns:xlink="http://www.w3.org/1999/xlink" x="0px" y="0px"
	 viewBox="0 0 545.49 200.46" style="enable-background:new 0 0 545.49 200.46;" xml:space="preserve">
<style type="text/css">
	.st0{fill:#798FFF;}
	.st1{fill:#FFFFFF;}
</style>
<g>
	<g>
		<path class="st0" d="M55.23,11.67c2.02,0.85,4.06,1.66,6.06,2.55c1.98,0.88,2.44,2,1.79,4.13c-0.67,2.19-1.28,4.4-2.06,6.55
			c-0.6,1.65,0.72,2.23,1.46,3.17c0.63,0.8,1.37,0.75,2.23,0.47c2.18-0.7,4.37-1.36,6.56-2.01c1.97-0.58,3.23-0.02,4.02,1.83
			c0.86,2.01,1.69,4.04,2.49,6.08c0.7,1.8,0.21,3.1-1.51,4.03c-1.97,1.07-3.95,2.1-5.94,3.12c-0.81,0.41-1.57,0.79-1.49,1.9
			c0.1,1.3-0.4,2.7,1.34,3.48c2.13,0.95,4.15,2.14,6.2,3.28c1.68,0.94,2.11,2.16,1.4,3.92c-0.8,1.99-1.62,3.97-2.49,5.93
			c-0.86,1.93-2,2.43-4,1.82c-2.19-0.67-4.41-1.27-6.54-2.09c-1.71-0.66-2.34,0.63-3.31,1.43c-0.85,0.7-0.72,1.48-0.43,2.37
			c0.7,2.18,1.37,4.36,2,6.56c0.54,1.86-0.06,3.12-1.86,3.89c-1.97,0.84-3.95,1.66-5.95,2.44c-1.91,0.75-3.22,0.29-4.18-1.47
			c-1.09-2.01-2.15-4.03-3.17-6.08c-0.4-0.8-0.81-1.43-1.84-1.33c-1.24,0.12-2.62-0.45-3.4,1.21c-0.97,2.07-2.12,4.05-3.22,6.06
			c-1.06,1.94-2.21,2.39-4.22,1.6c-1.9-0.75-3.79-1.54-5.66-2.37c-2.06-0.91-2.54-2.03-1.87-4.23c0.64-2.1,1.19-4.23,2-6.26
			c0.7-1.75-0.56-2.44-1.42-3.44c-0.78-0.91-1.6-0.63-2.52-0.34c-2.13,0.68-4.27,1.34-6.42,1.94c-1.79,0.5-3.06-0.08-3.81-1.79
			c-0.9-2.05-1.75-4.12-2.55-6.22c-0.64-1.7-0.1-3.08,1.49-3.96c2-1.1,4.03-2.16,6.08-3.18c0.92-0.46,1.47-1,1.39-2.12
			c-0.08-1.23,0.27-2.49-1.31-3.21c-2.08-0.95-4.07-2.1-6.07-3.2c-1.84-1.01-2.28-2.19-1.52-4.13c0.75-1.9,1.54-3.79,2.36-5.66
			c0.92-2.1,2.02-2.59,4.19-1.92c2.23,0.68,4.48,1.33,6.69,2.09c1.67,0.58,2.19-0.86,3.13-1.58c0.75-0.58,0.66-1.29,0.4-2.1
			c-0.71-2.17-1.37-4.36-2.01-6.55c-0.61-2.05,0.01-3.29,2.07-4.17c1.88-0.8,3.78-1.57,5.68-2.33c1.97-0.78,3.27-0.29,4.25,1.57
			c1.07,2.02,2.19,4.02,3.15,6.09c0.62,1.35,1.69,1.18,2.81,1.24c1.07,0.05,1.86-0.13,2.39-1.2c1.04-2.09,2.18-4.14,3.27-6.2
			c0.4-0.76,0.95-1.35,1.76-1.72C53.81,11.37,54.52,11.38,55.23,11.67z M50.26,55.35c6.36-2.61,9.26-9.58,6.65-15.95
			c-2.61-6.36-9.57-9.26-15.95-6.65c-6.36,2.61-9.27,9.57-6.65,15.95C36.92,55.06,43.88,57.97,50.26,55.35z"/>
	</g>
	<path class="st0" d="M126.65,30.8c3.05-3.88,9.58-7.06,14.51-7.06h40.11c4.94,0,6.36,3.08,3.17,6.84l-58.92,69.44
		c-3.19,3.76-5.81,10.88-5.81,15.82v63.24c0,4.94-4.04,8.97-8.97,8.97H76.99c-4.94,0-8.95-4.04-8.92-8.97l0.35-65.17
		c0.03-4.94,2.54-12.15,5.59-16.03L126.65,30.8z"/>
</g>
<g>
	<path class="st1" d="M262.61,85.09c11.46,0.07,20.19,3.95,27.07,11.64c4.8,5.37,7.4,11.73,7.83,19.03
		c0.57,9.57-2.63,17.66-9.16,24.45c-4.76,4.95-10.64,8.07-17.44,9.45c-9.66,1.96-18.62,0.27-26.78-5.16
		c-6.88-4.59-11.6-10.96-13.47-19.01c-2.26-9.7-0.59-18.8,5.53-26.91c5.04-6.68,11.72-10.76,19.8-12.67
		C258.5,85.32,261.07,84.9,262.61,85.09z M263.58,137.07c10.51,0.57,19.42-8.64,19.49-19.1c0.07-10.75-8.57-19.64-19.21-19.69
		c-10.73-0.05-19.5,8.51-19.58,19.49C244.19,128.65,253.48,137.57,263.58,137.07z"/>
	<path class="st1" d="M526.91,148.98c-1.99,0-3.99-0.05-5.98,0.02c-1.26,0.04-2.01-0.37-2.48-1.62c-1.04-2.79-2.26-5.51-3.34-8.29
		c-0.4-1.03-1.01-1.46-2.13-1.45c-7.62,0.03-15.24,0.03-22.86,0c-1.12,0-1.69,0.4-2.09,1.45c-1.08,2.83-2.31,5.6-3.41,8.42
		c-0.4,1.03-1.05,1.48-2.14,1.48c-4.33-0.02-8.67,0.01-13-0.02c-1.51-0.01-1.72-0.35-1.13-1.67c7.55-16.97,15.11-33.93,22.67-50.9
		c1.25-2.81,2.55-5.61,3.74-8.44c0.47-1.12,1.15-1.62,2.38-1.6c2.94,0.05,5.88,0.07,8.82-0.01c1.3-0.03,1.97,0.49,2.48,1.64
		c5.22,11.81,10.46,23.61,15.72,35.4c3.43,7.71,6.89,15.41,10.34,23.12c0.96,2.14,0.76,2.46-1.61,2.47
		C530.89,148.98,528.9,148.98,526.91,148.98z M501.66,106.46c-0.35,0.59-0.62,0.94-0.78,1.32c-2.3,5.64-4.56,11.3-6.9,16.93
		c-0.52,1.25-0.19,1.62,1.06,1.61c4.42-0.02,8.85-0.03,13.27,0c1.3,0.01,1.37-0.45,0.9-1.53c-1.33-3.1-2.55-6.24-3.83-9.35
		C504.18,112.52,502.96,109.61,501.66,106.46z"/>
	<path class="st1" d="M324.22,86.37c7.57,0,15.14,0,22.71,0c2.34,0,2.52,0.19,2.52,2.57c0.01,2.88-0.05,5.76,0.02,8.64
		c0.03,1.41-0.49,1.95-1.92,1.94c-4.68-0.05-9.36-0.02-14.05-0.02c-1.94,0-1.99,0.05-1.99,2.03c0,15,0,30,0,45
		c0,2.38-0.05,2.44-2.41,2.44c-3.29,0-6.57,0-9.86,0c-2.33,0-2.4-0.08-2.4-2.46c0-14.8,0-29.6,0-44.4c0-2.61,0-2.61-2.66-2.61
		c-4.38,0-8.77,0.01-13.15,0c-1.94,0-2.11-0.18-2.11-2.16c-0.01-2.83-0.01-5.66,0-8.49c0-2.32,0.15-2.48,2.44-2.48
		C308.97,86.37,316.59,86.37,324.22,86.37z"/>
	<path class="st1" d="M195.8,133.92c0-4.27-0.02-8.55,0.01-12.82c0.01-1.09-0.28-2.01-0.89-2.92c-6.53-9.75-13.04-19.52-19.55-29.28
		c-0.19-0.29-0.4-0.57-0.57-0.88c-0.61-1.13-0.41-1.57,0.88-1.61c1.94-0.07,3.89-0.03,5.83-0.03c2.14,0,4.29,0.04,6.43-0.02
		c1.22-0.03,2.01,0.4,2.69,1.46c3.84,6.04,7.73,12.05,11.62,18.06c0.94,1.45,1.06,1.44,1.97,0.02c3.82-5.99,7.66-11.97,11.45-17.99
		c0.68-1.09,1.52-1.57,2.81-1.55c3.84,0.05,7.67,0.01,11.51,0.02c0.63,0,1.41-0.2,1.77,0.48c0.35,0.67-0.24,1.21-0.59,1.74
		c-6.5,9.83-13,19.66-19.53,29.46c-0.67,1-0.96,2-0.96,3.2c0.03,8.4,0.02,16.8,0.01,25.19c0,2.34-0.19,2.52-2.57,2.53
		c-3.29,0.01-6.58,0-9.87,0c-2.42,0-2.46-0.05-2.47-2.54C195.8,142.26,195.8,138.09,195.8,133.92z"/>
	<path class="st1" d="M375.18,117.65c0-9.69,0-19.37,0-29.06c0-2.09,0.13-2.21,2.18-2.22c3.39-0.01,6.77-0.01,10.16,0
		c2.03,0.01,2.3,0.28,2.3,2.36c0.01,14.8,0,29.6,0,44.41c0,2.72,0,2.72,2.8,2.72c7.97,0,15.94,0,23.91,0c2.38,0,2.57,0.2,2.58,2.53
		c0.01,2.73,0.01,5.46,0,8.2c0,2.21-0.17,2.39-2.37,2.39c-11.16,0.01-22.31,0-33.47,0c-2.04,0-4.08,0.01-6.13,0
		c-1.8-0.01-1.97-0.17-1.97-1.97C375.18,137.22,375.18,127.43,375.18,117.65z"/>
	<path class="st1" d="M423.62,117.67c0-9.59,0-19.17,0-28.76c0-2.53,0.01-2.54,2.61-2.54c3.24,0,6.48-0.01,9.71,0
		c2.05,0.01,2.32,0.28,2.32,2.34c0.01,14.9,0,29.8,0,44.7c0,2.44,0,2.45,2.48,2.45c8.02,0,16.04,0,24.06,0
		c2.62,0,2.75,0.13,2.75,2.81c0,2.33,0,4.67,0,7c0,3.3,0,3.31-3.25,3.31c-9.76,0-19.53,0-29.29,0c-3.04,0-6.08,0-9.12,0
		c-2.2,0-2.3-0.09-2.3-2.25C423.61,137.04,423.62,127.36,423.62,117.67z"/>
	<path class="st1" d="M353.06,117.52c0-9.63,0-19.26,0-28.9c0-2.14,0.11-2.25,2.3-2.25c3.44-0.01,6.87-0.01,10.31,0.01
		c1.69,0.01,2.03,0.34,2.03,2.02c0.01,19.61,0,39.22,0.02,58.83c0,1.28-0.52,1.77-1.78,1.76c-3.63-0.04-7.27,0-10.9-0.02
		c-1.8-0.01-1.97-0.17-1.97-1.97C353.05,137.18,353.06,127.35,353.06,117.52z"/>
</g>
</svg>
