<?xml version="1.0" encoding="UTF-8"?>
<svg id="Layer_1" data-name="Layer 1" xmlns="http://www.w3.org/2000/svg" viewBox="0 0 757.07 546.39">
  <defs>
    <style>
      .cls-1, .cls-2 {
        stroke-width: 0px;
      }

      .cls-2 {
        fill: #798fff;
      }
    </style>
  </defs>
  <path class="cls-2" d="m280.6.47c3.92,1.65,7.88,3.22,11.77,4.95,3.85,1.72,4.74,3.88,3.47,8.02-1.3,4.25-2.49,8.54-4.01,12.71-1.16,3.2,1.4,4.33,2.84,6.16,1.22,1.55,2.65,1.45,4.33.92,4.23-1.35,8.48-2.64,12.73-3.9,3.82-1.13,6.27-.04,7.8,3.55,1.67,3.91,3.29,7.85,4.84,11.81,1.36,3.5.42,6.01-2.93,7.83-3.82,2.07-7.67,4.08-11.54,6.05-1.58.8-3.05,1.53-2.88,3.7.19,2.52-.78,5.24,2.61,6.76,4.13,1.85,8.07,4.16,12.03,6.37,3.27,1.82,4.1,4.2,2.72,7.62-1.56,3.86-3.14,7.71-4.84,11.51-1.67,3.75-3.88,4.71-7.77,3.53-4.25-1.29-8.56-2.46-12.7-4.05-3.32-1.28-4.54,1.22-6.42,2.78-1.64,1.36-1.39,2.87-.83,4.61,1.35,4.23,2.66,8.47,3.89,12.73,1.04,3.62-.12,6.05-3.61,7.54-3.82,1.64-7.68,3.22-11.55,4.73-3.71,1.45-6.26.56-8.12-2.85-2.12-3.9-4.18-7.83-6.16-11.8-.77-1.55-1.57-2.78-3.57-2.59-2.4.23-5.1-.87-6.61,2.35-1.89,4.02-4.12,7.87-6.25,11.78-2.05,3.76-4.3,4.64-8.19,3.1-3.69-1.46-7.36-2.99-10.99-4.6-3.99-1.76-4.94-3.94-3.64-8.21,1.24-4.07,2.31-8.21,3.88-12.15,1.36-3.41-1.1-4.74-2.76-6.69-1.5-1.76-3.12-1.22-4.89-.65-4.14,1.32-8.29,2.6-12.47,3.77-3.48.98-5.94-.16-7.4-3.47-1.75-3.98-3.41-8.01-4.94-12.08-1.24-3.29-.2-5.99,2.9-7.68,3.89-2.13,7.82-4.2,11.8-6.17,1.79-.89,2.86-1.94,2.71-4.12-.16-2.4.52-4.84-2.54-6.23-4.03-1.84-7.9-4.07-11.79-6.21-3.58-1.97-4.43-4.26-2.95-8.02,1.45-3.7,2.99-7.36,4.59-11,1.79-4.08,3.93-5.03,8.14-3.74,4.34,1.33,8.71,2.58,12.99,4.07,3.24,1.12,4.25-1.67,6.07-3.07,1.46-1.12,1.28-2.51.77-4.08-1.37-4.22-2.65-8.47-3.91-12.73-1.18-3.99.02-6.4,4.02-8.09,3.66-1.55,7.33-3.06,11.03-4.52,3.82-1.51,6.34-.55,8.25,3.05,2.07,3.93,4.25,7.8,6.11,11.83,1.21,2.62,3.29,2.3,5.47,2.4,2.07.1,3.62-.26,4.64-2.34,2.01-4.07,4.23-8.03,6.34-12.05.77-1.47,1.85-2.61,3.41-3.35,1.36-.38,2.75-.36,4.11.22Zm-9.66,84.81c12.35-5.07,17.99-18.59,12.91-30.96-5.07-12.35-18.59-17.99-30.96-12.91-12.36,5.08-17.99,18.59-12.91,30.96,5.07,12.35,18.59,17.99,30.96,12.91Z"/>
  <path class="cls-2" d="m419.29,37.62c5.92-7.54,18.6-13.71,28.18-13.71h77.88c9.58,0,12.35,5.98,6.15,13.29l-114.41,134.83c-6.2,7.31-11.27,21.13-11.27,30.71v122.8c0,9.58-7.84,17.42-17.42,17.42h-65.54c-9.58,0-17.38-7.84-17.33-17.42l.68-126.56c.05-9.58,4.94-23.59,10.85-31.13l102.23-130.24Z"/>
  <g id="RzBXFh.tif">
    <g>
      <path class="cls-1" d="m185.04,409.15c24.07.16,42.39,8.28,56.83,24.45,10.08,11.28,15.53,24.63,16.44,39.96,1.2,20.09-5.52,37.08-19.23,51.33-10,10.39-22.35,16.94-36.61,19.84-20.28,4.12-39.1.57-56.23-10.84-14.45-9.63-24.35-23.01-28.28-39.91-4.74-20.38-1.25-39.47,11.6-56.5,10.58-14.02,24.62-22.6,41.57-26.6,5.28-1.25,10.66-2.14,13.9-1.73Zm2.03,109.14c22.08,1.21,40.78-18.14,40.92-40.1.15-22.56-18-41.24-40.34-41.34-22.54-.1-40.95,17.87-41.12,40.93-.17,22.82,19.34,41.55,40.53,40.51Z"/>
      <path class="cls-1" d="m740.01,543.3c-4.18,0-8.37-.1-12.55.03-2.65.08-4.23-.79-5.21-3.4-2.19-5.86-4.75-11.58-7.02-17.41-.84-2.16-2.12-3.06-4.46-3.05-16,.06-32.01.07-48.01,0-2.35-.01-3.56.84-4.4,3.04-2.27,5.94-4.84,11.76-7.16,17.68-.85,2.16-2.21,3.12-4.49,3.11-9.1-.03-18.2.02-27.3-.03-3.16-.02-3.61-.74-2.38-3.51,15.86-35.63,31.74-71.25,47.61-106.87,2.63-5.91,5.35-11.77,7.86-17.73.99-2.35,2.42-3.39,4.99-3.35,6.17.1,12.35.14,18.51-.02,2.73-.07,4.14,1.03,5.21,3.45,10.95,24.8,21.97,49.57,33,74.33,7.21,16.19,14.46,32.36,21.72,48.54,2.02,4.5,1.61,5.17-3.37,5.19-4.18.01-8.37,0-12.55,0Zm-53.02-89.29c-.74,1.24-1.3,1.97-1.63,2.78-4.84,11.85-9.58,23.73-14.5,35.54-1.09,2.62-.4,3.4,2.22,3.38,9.29-.04,18.58-.05,27.87,0,2.73.02,2.87-.94,1.9-3.21-2.8-6.5-5.36-13.1-8.05-19.64-2.51-6.12-5.07-12.23-7.81-18.86Z"/>
      <path class="cls-1" d="m314.4,411.84c15.9,0,31.79,0,47.69,0,4.91,0,5.29.4,5.3,5.4.01,6.05-.1,12.1.04,18.15.07,2.96-1.03,4.1-4.03,4.07-9.83-.11-19.66-.05-29.49-.03-4.07,0-4.18.11-4.18,4.26,0,31.5,0,62.99,0,94.49,0,5.01-.11,5.12-5.06,5.12-6.9,0-13.8,0-20.71,0-4.89,0-5.04-.16-5.04-5.17,0-31.08,0-62.16,0-93.24q0-5.47-5.59-5.47c-9.2,0-18.41.01-27.61,0-4.07,0-4.43-.38-4.44-4.53-.02-5.94-.01-11.89,0-17.83,0-4.86.32-5.2,5.12-5.21,16-.01,32,0,48,0Z"/>
      <path class="cls-1" d="m44.76,511.67c0-8.97-.04-17.95.03-26.92.02-2.3-.59-4.22-1.87-6.13-13.72-20.47-27.37-40.99-41.04-61.49-.41-.61-.84-1.2-1.19-1.84-1.28-2.36-.85-3.29,1.85-3.39,4.08-.15,8.16-.07,12.24-.07,4.5,0,9,.09,13.5-.03,2.57-.07,4.23.84,5.64,3.06,8.05,12.69,16.24,25.3,24.41,37.91,1.97,3.04,2.23,3.02,4.13.05,8.03-12.58,16.08-25.15,24.04-37.77,1.44-2.28,3.2-3.29,5.91-3.26,8.06.1,16.11.02,24.17.05,1.32,0,2.97-.41,3.71,1.02.73,1.41-.51,2.54-1.24,3.64-13.65,20.63-27.29,41.27-41,61.86-1.4,2.11-2.02,4.21-2.01,6.72.06,17.63.04,35.27.03,52.9,0,4.91-.4,5.3-5.4,5.3-6.91.01-13.81,0-20.72,0-5.09,0-5.18-.1-5.18-5.33,0-8.76,0-17.53,0-26.29Z"/>
      <path class="cls-1" d="m421.42,477.52c0-20.34,0-40.68,0-61.02,0-4.38.27-4.65,4.58-4.66,7.11-.02,14.22-.02,21.34,0,4.27.01,4.84.58,4.84,4.95.01,31.08,0,62.16,0,93.24q0,5.72,5.88,5.72c16.73,0,33.47,0,50.2,0,4.99,0,5.4.41,5.42,5.31.01,5.74.01,11.47,0,17.21,0,4.64-.35,5.01-4.97,5.01-23.43.01-46.86,0-70.28,0-4.29,0-8.58.02-12.86,0-3.78-.03-4.14-.36-4.14-4.13-.02-20.55,0-41.09,0-61.64Z"/>
      <path class="cls-1" d="m523.12,477.56c0-20.13,0-40.26,0-60.39,0-5.31.03-5.33,5.49-5.33,6.8,0,13.6-.02,20.4,0,4.3.01,4.88.58,4.88,4.9.01,31.29,0,62.58,0,93.87q0,5.13,5.21,5.14c16.84,0,33.68,0,50.52,0,5.51,0,5.77.27,5.78,5.89,0,4.9,0,9.8,0,14.71q0,6.94-6.81,6.94c-20.5,0-41,0-61.5,0-6.38,0-12.76,0-19.14,0-4.63,0-4.82-.19-4.82-4.72,0-20.34,0-40.68,0-61.02Z"/>
      <path class="cls-1" d="m374.96,477.24c0-20.23,0-40.45,0-60.68,0-4.5.23-4.71,4.83-4.72,7.21-.01,14.43-.03,21.64.01,3.54.02,4.27.71,4.27,4.24.02,41.18,0,82.36.04,123.54,0,2.69-1.08,3.72-3.74,3.7-7.63-.08-15.26,0-22.89-.03-3.78-.01-4.14-.36-4.15-4.13-.02-20.64,0-41.28,0-61.93Z"/>
    </g>
  </g>
</svg>