<?xml version="1.0" encoding="UTF-8"?>
<svg id="Layer_1" data-name="Layer 1" xmlns="http://www.w3.org/2000/svg" viewBox="0 0 966.35 326.71">
  <defs>
    <style>
      .cls-1, .cls-2 {
        stroke-width: 0px;
      }

      .cls-2 {
        fill: #798fff;
      }
    </style>
  </defs>
  <g>
    <path class="cls-2" d="m78.83.45c3.74,1.57,7.51,3.07,11.21,4.72,3.67,1.64,4.51,3.7,3.3,7.64-1.24,4.05-2.37,8.14-3.82,12.11-1.11,3.05,1.33,4.12,2.71,5.86,1.16,1.48,2.53,1.38,4.12.88,4.03-1.29,8.08-2.51,12.13-3.72,3.64-1.08,5.97-.03,7.43,3.39,1.59,3.73,3.13,7.48,4.61,11.25,1.3,3.33.4,5.73-2.79,7.46-3.64,1.97-7.31,3.89-11,5.76-1.5.76-2.9,1.46-2.75,3.52.18,2.4-.74,4.99,2.48,6.44,3.94,1.77,7.68,3.96,11.46,6.06,3.12,1.74,3.91,4,2.59,7.26-1.48,3.68-2.99,7.34-4.61,10.96-1.59,3.57-3.69,4.49-7.4,3.36-4.05-1.23-8.15-2.34-12.09-3.86-3.16-1.22-4.32,1.17-6.12,2.65-1.56,1.29-1.32,2.74-.79,4.39,1.29,4.03,2.53,8.07,3.7,12.13.99,3.45-.11,5.76-3.43,7.19-3.64,1.56-7.31,3.07-11,4.51-3.54,1.38-5.96.54-7.74-2.72-2.02-3.71-3.98-7.46-5.87-11.24-.74-1.48-1.49-2.65-3.4-2.47-2.29.21-4.85-.83-6.3,2.24-1.8,3.83-3.92,7.5-5.95,11.22-1.96,3.58-4.09,4.42-7.8,2.95-3.52-1.39-7.01-2.85-10.47-4.38-3.8-1.68-4.7-3.75-3.47-7.82,1.18-3.88,2.2-7.82,3.7-11.58,1.3-3.25-1.04-4.52-2.63-6.37-1.43-1.68-2.97-1.16-4.66-.62-3.94,1.26-7.9,2.48-11.88,3.59-3.32.93-5.66-.15-7.05-3.31-1.67-3.79-3.25-7.63-4.71-11.5-1.19-3.14-.19-5.7,2.76-7.32,3.71-2.03,7.45-4,11.24-5.88,1.71-.84,2.72-1.84,2.58-3.92-.16-2.28.5-4.61-2.42-5.94-3.84-1.76-7.53-3.88-11.23-5.92-3.41-1.88-4.22-4.06-2.81-7.64,1.39-3.52,2.85-7.01,4.37-10.47,1.71-3.88,3.74-4.79,7.76-3.56,4.13,1.27,8.29,2.46,12.38,3.87,3.08,1.07,4.05-1.59,5.79-2.93,1.39-1.07,1.22-2.39.74-3.89-1.31-4.02-2.53-8.07-3.72-12.12-1.12-3.8.02-6.09,3.83-7.71,3.48-1.47,6.99-2.91,10.5-4.3,3.64-1.44,6.04-.53,7.85,2.9,1.97,3.74,4.05,7.43,5.82,11.26,1.16,2.5,3.13,2.19,5.21,2.29,1.97.1,3.44-.25,4.42-2.23,1.91-3.87,4.03-7.65,6.04-11.48.74-1.4,1.76-2.49,3.25-3.19,1.3-.36,2.62-.34,3.92.21Zm-9.2,80.79c11.77-4.83,17.14-17.71,12.3-29.5-4.83-11.77-17.71-17.14-29.5-12.29-11.77,4.84-17.14,17.71-12.3,29.49,4.83,11.77,17.71,17.13,29.5,12.3Z"/>
    <path class="cls-2" d="m210.95,35.84c5.64-7.18,17.72-13.06,26.85-13.06h74.19c9.13,0,11.77,5.7,5.86,12.66l-108.99,128.44c-5.91,6.96-10.74,20.13-10.74,29.25v116.98c0,9.13-7.47,16.6-16.6,16.6h-62.43c-9.13,0-16.56-7.47-16.51-16.6l.65-120.56c.05-9.13,4.7-22.47,10.34-29.65l97.38-124.06Z"/>
  </g>
  <g>
    <path class="cls-1" d="m462.43,136.26c21.2.14,37.34,7.3,50.07,21.54,8.88,9.94,13.68,21.69,14.48,35.2,1.06,17.69-4.86,32.66-16.94,45.22-8.81,9.16-19.68,14.92-32.25,17.48-17.86,3.63-34.44.5-49.53-9.55-12.73-8.48-21.45-20.27-24.91-35.16-4.18-17.95-1.1-34.77,10.22-49.77,9.32-12.35,21.68-19.91,36.62-23.43,4.65-1.1,9.39-1.88,12.24-1.52Zm1.79,96.15c19.45,1.06,35.92-15.98,36.05-35.33.13-19.88-15.86-36.33-35.53-36.42-19.85-.09-36.07,15.74-36.22,36.06-.15,20.1,17.04,36.6,35.7,35.68Z"/>
    <path class="cls-1" d="m951.32,254.43c-3.69,0-7.37-.09-11.06.03-2.33.07-3.72-.69-4.59-3-1.93-5.16-4.18-10.2-6.18-15.33-.74-1.9-1.87-2.69-3.93-2.69-14.1.06-28.2.06-42.29,0-2.07,0-3.13.74-3.87,2.68-2,5.23-4.27,10.36-6.31,15.58-.75,1.9-1.94,2.74-3.96,2.74-8.02-.03-16.03.02-24.05-.03-2.79-.02-3.18-.65-2.09-3.09,13.97-31.39,27.96-62.76,41.94-94.15,2.32-5.2,4.71-10.37,6.92-15.62.87-2.07,2.13-2.99,4.4-2.95,5.44.09,10.88.12,16.31-.02,2.41-.06,3.65.91,4.59,3.04,9.65,21.85,19.36,43.67,29.07,65.48,6.35,14.26,12.74,28.51,19.13,42.76,1.78,3.96,1.41,4.55-2.97,4.57-3.69.01-7.37,0-11.06,0Zm-46.71-78.65c-.65,1.1-1.14,1.73-1.44,2.45-4.26,10.44-8.44,20.9-12.77,31.31-.96,2.3-.35,2.99,1.96,2.98,8.18-.03,16.37-.05,24.55,0,2.41.02,2.53-.83,1.67-2.83-2.46-5.73-4.72-11.54-7.09-17.3-2.21-5.4-4.46-10.78-6.88-16.61Z"/>
    <path class="cls-1" d="m576.39,138.62c14,0,28.01,0,42.01,0,4.33,0,4.66.35,4.67,4.76,0,5.33-.08,10.66.04,15.99.06,2.6-.91,3.61-3.55,3.58-8.66-.09-17.32-.04-25.98-.03-3.59,0-3.68.1-3.68,3.76,0,27.75,0,55.49,0,83.24,0,4.41-.1,4.51-4.45,4.51-6.08,0-12.16,0-18.24,0-4.3,0-4.44-.14-4.44-4.55,0-27.38,0-54.76,0-82.14q0-4.82-4.92-4.82c-8.11,0-16.21.01-24.32,0-3.59,0-3.9-.34-3.91-3.99-.02-5.24-.01-10.47,0-15.71,0-4.29.28-4.58,4.51-4.59,14.1-.01,28.19,0,42.29,0Z"/>
    <path class="cls-1" d="m338.86,226.57c0-7.9-.04-15.81.03-23.71.02-2.02-.52-3.71-1.65-5.4-12.08-18.03-24.11-36.11-36.15-54.17-.36-.54-.74-1.06-1.05-1.62-1.12-2.08-.75-2.9,1.63-2.98,3.59-.13,7.19-.06,10.78-.06,3.96,0,7.93.08,11.89-.03,2.26-.06,3.72.74,4.97,2.7,7.1,11.18,14.31,22.28,21.5,33.4,1.74,2.68,1.96,2.66,3.64.04,7.07-11.08,14.17-22.15,21.17-33.27,1.27-2.01,2.82-2.9,5.21-2.87,7.1.09,14.19.02,21.29.04,1.16,0,2.62-.36,3.27.9.65,1.24-.45,2.24-1.09,3.21-12.02,18.18-24.04,36.36-36.12,54.5-1.24,1.85-1.78,3.71-1.77,5.92.06,15.53.03,31.07.03,46.6,0,4.33-.35,4.67-4.76,4.67-6.08,0-12.17,0-18.25,0-4.48,0-4.56-.09-4.56-4.7,0-7.72,0-15.44,0-23.16Z"/>
    <path class="cls-1" d="m670.66,196.48c0-17.92,0-35.83,0-53.75,0-3.86.24-4.1,4.04-4.11,6.27-.01,12.53-.02,18.8,0,3.76.01,4.26.51,4.26,4.36.01,27.38,0,54.76,0,82.14q0,5.04,5.18,5.04c14.74,0,29.48,0,44.22,0,4.4,0,4.76.36,4.77,4.68.01,5.05.01,10.11,0,15.16,0,4.09-.31,4.41-4.38,4.42-20.64,0-41.28,0-61.91,0-3.78,0-7.56.02-11.33,0-3.33-.02-3.65-.32-3.65-3.64-.01-18.1,0-36.2,0-54.3Z"/>
    <path class="cls-1" d="m760.26,196.52c0-17.73,0-35.47,0-53.2,0-4.68.02-4.7,4.83-4.7,5.99,0,11.98-.02,17.97,0,3.79.01,4.3.51,4.3,4.32.01,27.56,0,55.13,0,82.69q0,4.52,4.59,4.53c14.83,0,29.67,0,44.5,0,4.85,0,5.08.24,5.09,5.19,0,4.32,0,8.64,0,12.96q0,6.11-6,6.11c-18.06,0-36.12,0-54.18,0-5.62,0-11.24,0-16.86,0-4.08,0-4.25-.17-4.25-4.16,0-17.92,0-35.83,0-53.75Z"/>
    <path class="cls-1" d="m629.74,196.23c0-17.82,0-35.63,0-53.45,0-3.97.2-4.15,4.26-4.16,6.35,0,12.71-.03,19.06.01,3.12.02,3.76.63,3.76,3.73.02,36.28,0,72.55.04,108.83,0,2.37-.95,3.28-3.3,3.26-6.72-.07-13.45,0-20.17-.03-3.33-.01-3.65-.32-3.65-3.64-.01-18.18,0-36.37,0-54.55Z"/>
  </g>
</svg>